<?xml version="1.0" encoding="UTF-8"?>
<svg width="36px" height="36px" viewBox="0 0 36 36" version="1.1" xmlns="http://www.w3.org/2000/svg" xmlns:xlink="http://www.w3.org/1999/xlink">
    <!-- Generator: Sketch 56.3 (81716) - https://sketch.com -->
    <title>default_user_icon</title>
    <desc>Created with Sketch.</desc>
    <g id="Artboard" stroke="none" stroke-width="1" fill="none" fill-rule="evenodd">
        <g id="default_user_icon-copy" transform="translate(8.000000, 6.000000)" fill="#4A4A4A" fill-rule="nonzero">
            <path d="M13.7408607,12.7483725 C16.9840583,14.432732 19.2307692,18.0365273 19.2307692,22.2014211 L19.2307692,23.8123857 C19.2307692,24.4686848 18.7032485,25 18.0528154,25 C17.4023823,25 16.8748615,24.4686848 16.8748615,23.8123857 L16.8748615,22.2014211 C16.8748615,17.7397566 13.6179484,14.1099009 9.6151209,14.1099009 C5.6122933,14.1099009 2.3559077,17.7397566 2.3559077,22.2014211 L2.3559077,23.8123857 C2.3559077,24.4686848 1.82838695,25 1.17795385,25 C0.52699324,25 0,24.4686848 0,23.8123857 L0,22.2014211 C0,18.0365273 2.2467109,14.432732 5.4899085,12.7483725 C3.7501451,11.463962 2.6180855,9.3908224 2.6180855,7.0549504 C2.6180855,3.16502149 5.756834,0 9.6151209,0 C13.4739352,0 16.6126837,3.16502149 16.6126837,7.0549504 C16.6126837,9.3908224 15.4800966,11.463962 13.7408607,12.7483725 Z M4.9145299,7.0512821 C4.9145299,9.6432173 6.9754023,11.7521368 9.5082859,11.7521368 C12.0416917,11.7521368 14.1025641,9.6432173 14.1025641,7.0512821 C14.1025641,4.4593468 12.0416917,2.35042735 9.5082859,2.35042735 C6.9754023,2.35042735 4.9145299,4.4593468 4.9145299,7.0512821 Z" id="teams-copy-2"></path>
        </g>
    </g>
</svg>
